<svg width="60" height="60" viewBox="0 0 60 60" fill="none" xmlns="http://www.w3.org/2000/svg">
<path d="M35.7896 22.7439C35.4433 21.77 34.8045 20.9269 33.9606 20.3301C33.1167 19.7332 32.109 19.4117 31.0754 19.4096H27.2054C26.1013 19.4039 25.0343 19.8077 24.2107 20.543C23.3871 21.2783 22.8654 22.2929 22.7465 23.3906C22.6276 24.4883 22.92 25.5911 23.5671 26.4857C24.2141 27.3803 25.1699 28.0032 26.2496 28.2339L32.1425 29.5196C33.3474 29.7834 34.4124 30.4832 35.1328 31.4845C35.8531 32.4857 36.1781 33.7179 36.0452 34.9442C35.9123 36.1705 35.331 37.3044 34.4128 38.1281C33.4947 38.9518 32.3045 39.4072 31.0711 39.4068H27.7411C25.5639 39.4068 23.7125 38.0182 23.0268 36.0768M29.4082 19.4096V14.4082M29.4082 44.4082V39.4111M8.5625 57.8482V47.1339H19.2768" stroke="#FDFDFD" stroke-width="3" stroke-linecap="round" stroke-linejoin="round"/>
<path d="M57.3769 24.8741C58.5146 30.9393 57.6063 37.2106 54.7944 42.7037C51.9825 48.1968 47.4262 52.6008 41.8407 55.2243C36.2552 57.8479 29.9566 58.5426 23.9336 57.1993C17.9106 55.8561 12.5041 52.551 8.56262 47.8027M2.62262 35.1255C1.48487 29.0603 2.39323 22.789 5.20514 17.2959C8.01705 11.8028 12.5733 7.39888 18.1588 4.77531C23.7443 2.15173 30.0429 1.45706 36.0659 2.80031C42.0889 4.14356 47.4955 7.4487 51.4369 12.197" stroke="#FDFDFD" stroke-width="3" stroke-linecap="round" stroke-linejoin="round"/>
<path d="M51.4369 2.15137V12.8657H40.7227" stroke="#FDFDFD" stroke-width="3" stroke-linecap="round" stroke-linejoin="round"/>
</svg>
