<svg width="17" height="17" viewBox="0 0 17 17" fill="none" xmlns="http://www.w3.org/2000/svg">
<path d="M14.875 4.23518C12.5162 4.00143 10.1433 3.88102 7.7775 3.88102C6.375 3.88102 4.9725 3.95185 3.57 4.09352L2.125 4.23518M6.02083 3.51977L6.17667 2.59185C6.29 1.91893 6.375 1.41602 7.57208 1.41602H9.42792C10.625 1.41602 10.7171 1.94727 10.8233 2.59893L10.9792 3.51977M13.3521 6.47352L12.8917 13.6064C12.8138 14.7185 12.75 15.5827 10.7737 15.5827H6.22625C4.25 15.5827 4.18625 14.7185 4.10833 13.6064L3.64792 6.47352M7.31708 11.6868H9.67583M6.72917 8.85352H10.2708" stroke="#F75555" stroke-linecap="round" stroke-linejoin="round"/>
</svg>
